<mxfile host="app.diagrams.net" agent="Mozilla/5.0 (Windows NT 10.0; Win64; x64) AppleWebKit/537.36 (KHTML, like Gecko) Chrome/133.0.0.0 Safari/537.36 Edg/133.0.0.0" version="26.0.3">
  <diagram name="Page-1" id="shng6Eklg5MfnIeYItAj">
    <mxGraphModel dx="1180" dy="1017" grid="1" gridSize="10" guides="1" tooltips="1" connect="1" arrows="1" fold="1" page="1" pageScale="1" pageWidth="850" pageHeight="1100" math="0" shadow="0">
      <root>
        <mxCell id="0" />
        <mxCell id="1" parent="0" />
        <mxCell id="k12HwEfzkXI6Q3aegKNw-1" value="&lt;b&gt;&lt;font style=&quot;font-size: 34px;&quot;&gt;Knowledge Database&lt;/font&gt;&lt;/b&gt;" style="rounded=1;whiteSpace=wrap;html=1;" parent="1" vertex="1">
          <mxGeometry x="400" y="225" width="240" height="130" as="geometry" />
        </mxCell>
        <mxCell id="k12HwEfzkXI6Q3aegKNw-2" value="&lt;font style=&quot;font-size: 26px;&quot;&gt;Document&lt;/font&gt;" style="shape=note;whiteSpace=wrap;html=1;backgroundOutline=1;darkOpacity=0.05;" parent="1" vertex="1">
          <mxGeometry x="125" y="200" width="150" height="180" as="geometry" />
        </mxCell>
        <mxCell id="k12HwEfzkXI6Q3aegKNw-3" value="" style="endArrow=classic;html=1;rounded=0;entryX=0;entryY=0.5;entryDx=0;entryDy=0;strokeWidth=6;strokeColor=#ff00dd;" parent="1" target="k12HwEfzkXI6Q3aegKNw-1" edge="1">
          <mxGeometry width="50" height="50" relative="1" as="geometry">
            <mxPoint x="276" y="290" as="sourcePoint" />
            <mxPoint x="396" y="290" as="targetPoint" />
          </mxGeometry>
        </mxCell>
        <mxCell id="k12HwEfzkXI6Q3aegKNw-4" value="&lt;b&gt;&lt;font style=&quot;font-size: 34px;&quot;&gt;Similarity Match&lt;/font&gt;&lt;/b&gt;" style="rounded=1;whiteSpace=wrap;html=1;" parent="1" vertex="1">
          <mxGeometry x="400" y="430" width="240" height="130" as="geometry" />
        </mxCell>
        <mxCell id="k12HwEfzkXI6Q3aegKNw-5" value="&lt;b&gt;&lt;font style=&quot;font-size: 34px;&quot;&gt;Query&lt;/font&gt;&lt;/b&gt;" style="rounded=1;whiteSpace=wrap;html=1;" parent="1" vertex="1">
          <mxGeometry x="80" y="430" width="240" height="130" as="geometry" />
        </mxCell>
        <mxCell id="k12HwEfzkXI6Q3aegKNw-6" value="" style="endArrow=classic;html=1;rounded=0;entryX=0;entryY=0.5;entryDx=0;entryDy=0;strokeWidth=6;strokeColor=#ff00dd;exitX=1;exitY=0.5;exitDx=0;exitDy=0;" parent="1" source="k12HwEfzkXI6Q3aegKNw-5" target="k12HwEfzkXI6Q3aegKNw-4" edge="1">
          <mxGeometry width="50" height="50" relative="1" as="geometry">
            <mxPoint x="286" y="300" as="sourcePoint" />
            <mxPoint x="410" y="300" as="targetPoint" />
          </mxGeometry>
        </mxCell>
        <mxCell id="k12HwEfzkXI6Q3aegKNw-7" value="" style="endArrow=classic;html=1;rounded=0;entryX=0.5;entryY=1;entryDx=0;entryDy=0;strokeWidth=6;strokeColor=#ff00dd;exitX=0.5;exitY=0;exitDx=0;exitDy=0;startArrow=classic;startFill=1;" parent="1" source="k12HwEfzkXI6Q3aegKNw-4" target="k12HwEfzkXI6Q3aegKNw-1" edge="1">
          <mxGeometry width="50" height="50" relative="1" as="geometry">
            <mxPoint x="330" y="505" as="sourcePoint" />
            <mxPoint x="410" y="505" as="targetPoint" />
          </mxGeometry>
        </mxCell>
        <mxCell id="k12HwEfzkXI6Q3aegKNw-9" value="&lt;b&gt;&lt;font style=&quot;font-size: 34px;&quot;&gt;Prompt&lt;/font&gt;&lt;/b&gt;" style="rounded=1;whiteSpace=wrap;html=1;" parent="1" vertex="1">
          <mxGeometry x="80" y="620" width="240" height="130" as="geometry" />
        </mxCell>
        <mxCell id="k12HwEfzkXI6Q3aegKNw-10" value="&lt;b&gt;&lt;font style=&quot;font-size: 34px;&quot;&gt;LLM&lt;/font&gt;&lt;/b&gt;" style="rounded=1;whiteSpace=wrap;html=1;" parent="1" vertex="1">
          <mxGeometry x="400" y="620" width="240" height="130" as="geometry" />
        </mxCell>
        <mxCell id="k12HwEfzkXI6Q3aegKNw-11" value="&lt;b&gt;&lt;font style=&quot;font-size: 34px;&quot;&gt;Response&lt;/font&gt;&lt;/b&gt;" style="rounded=1;whiteSpace=wrap;html=1;" parent="1" vertex="1">
          <mxGeometry x="700" y="620" width="240" height="130" as="geometry" />
        </mxCell>
        <mxCell id="k12HwEfzkXI6Q3aegKNw-12" value="" style="endArrow=classic;html=1;rounded=0;entryX=0.5;entryY=0;entryDx=0;entryDy=0;strokeWidth=6;strokeColor=#ff00dd;exitX=0.5;exitY=1;exitDx=0;exitDy=0;" parent="1" source="kTG_Xk6IwW6YjMIatVM8-1" target="k12HwEfzkXI6Q3aegKNw-9" edge="1">
          <mxGeometry width="50" height="50" relative="1" as="geometry">
            <mxPoint x="330" y="505" as="sourcePoint" />
            <mxPoint x="410" y="505" as="targetPoint" />
          </mxGeometry>
        </mxCell>
        <mxCell id="k12HwEfzkXI6Q3aegKNw-13" value="" style="endArrow=classic;html=1;rounded=0;entryX=0;entryY=0.5;entryDx=0;entryDy=0;strokeWidth=6;strokeColor=#ff00dd;exitX=1;exitY=0.5;exitDx=0;exitDy=0;" parent="1" source="k12HwEfzkXI6Q3aegKNw-9" target="k12HwEfzkXI6Q3aegKNw-10" edge="1">
          <mxGeometry width="50" height="50" relative="1" as="geometry">
            <mxPoint x="820" y="590" as="sourcePoint" />
            <mxPoint x="880" y="590" as="targetPoint" />
          </mxGeometry>
        </mxCell>
        <mxCell id="k12HwEfzkXI6Q3aegKNw-14" value="" style="endArrow=classic;html=1;rounded=0;entryX=0;entryY=0.5;entryDx=0;entryDy=0;strokeWidth=6;strokeColor=#ff00dd;exitX=1;exitY=0.5;exitDx=0;exitDy=0;" parent="1" source="k12HwEfzkXI6Q3aegKNw-10" target="k12HwEfzkXI6Q3aegKNw-11" edge="1">
          <mxGeometry width="50" height="50" relative="1" as="geometry">
            <mxPoint x="660" y="515" as="sourcePoint" />
            <mxPoint x="720" y="515" as="targetPoint" />
          </mxGeometry>
        </mxCell>
        <mxCell id="k12HwEfzkXI6Q3aegKNw-15" value="Retrieval Process" style="text;html=1;align=center;verticalAlign=middle;whiteSpace=wrap;rounded=0;fontSize=24;fontStyle=2" parent="1" vertex="1">
          <mxGeometry x="550" y="380" width="270" height="50" as="geometry" />
        </mxCell>
        <mxCell id="k12HwEfzkXI6Q3aegKNw-16" value="Generation Process" style="text;html=1;align=center;verticalAlign=middle;whiteSpace=wrap;rounded=0;fontSize=24;fontStyle=2" parent="1" vertex="1">
          <mxGeometry x="550" y="750" width="270" height="50" as="geometry" />
        </mxCell>
        <mxCell id="kTG_Xk6IwW6YjMIatVM8-1" value="&lt;b&gt;&lt;font style=&quot;font-size: 34px;&quot;&gt;Retrieve Conversation&lt;/font&gt;&lt;/b&gt;" style="rounded=1;whiteSpace=wrap;html=1;" vertex="1" parent="1">
          <mxGeometry x="700" y="430" width="240" height="130" as="geometry" />
        </mxCell>
        <mxCell id="kTG_Xk6IwW6YjMIatVM8-3" value="" style="endArrow=classic;html=1;rounded=0;strokeWidth=6;strokeColor=#ff00dd;entryX=0;entryY=0.5;entryDx=0;entryDy=0;exitX=1;exitY=0.5;exitDx=0;exitDy=0;" edge="1" parent="1" source="k12HwEfzkXI6Q3aegKNw-4" target="kTG_Xk6IwW6YjMIatVM8-1">
          <mxGeometry width="50" height="50" relative="1" as="geometry">
            <mxPoint x="670" y="530" as="sourcePoint" />
            <mxPoint x="680" y="540" as="targetPoint" />
          </mxGeometry>
        </mxCell>
        <mxCell id="kTG_Xk6IwW6YjMIatVM8-5" value="&lt;font style=&quot;font-size: 26px;&quot;&gt;Memory&lt;br&gt;Cache&lt;/font&gt;" style="shape=cylinder3;whiteSpace=wrap;html=1;boundedLbl=1;backgroundOutline=1;size=15;" vertex="1" parent="1">
          <mxGeometry x="755" y="215" width="130" height="140" as="geometry" />
        </mxCell>
        <mxCell id="kTG_Xk6IwW6YjMIatVM8-6" value="" style="endArrow=classic;html=1;rounded=0;entryX=0.5;entryY=0;entryDx=0;entryDy=0;strokeWidth=6;strokeColor=#ff00dd;exitX=0.5;exitY=1;exitDx=0;exitDy=0;exitPerimeter=0;" edge="1" parent="1" source="kTG_Xk6IwW6YjMIatVM8-5" target="kTG_Xk6IwW6YjMIatVM8-1">
          <mxGeometry width="50" height="50" relative="1" as="geometry">
            <mxPoint x="870" y="404.5" as="sourcePoint" />
            <mxPoint x="950" y="404.5" as="targetPoint" />
          </mxGeometry>
        </mxCell>
        <mxCell id="kTG_Xk6IwW6YjMIatVM8-8" style="edgeStyle=orthogonalEdgeStyle;rounded=0;orthogonalLoop=1;jettySize=auto;html=1;exitX=1;exitY=0.5;exitDx=0;exitDy=0;entryX=0.5;entryY=1;entryDx=0;entryDy=0;entryPerimeter=0;" edge="1" parent="1" source="k12HwEfzkXI6Q3aegKNw-11" target="kTG_Xk6IwW6YjMIatVM8-10">
          <mxGeometry relative="1" as="geometry">
            <Array as="points">
              <mxPoint x="1070" y="685" />
            </Array>
          </mxGeometry>
        </mxCell>
        <mxCell id="kTG_Xk6IwW6YjMIatVM8-10" value="&lt;span style=&quot;font-size: 24px;&quot;&gt;Query + Context + Response&lt;/span&gt;" style="shape=note;whiteSpace=wrap;html=1;backgroundOutline=1;darkOpacity=0.05;" vertex="1" parent="1">
          <mxGeometry x="990" y="420" width="160" height="180" as="geometry" />
        </mxCell>
        <mxCell id="kTG_Xk6IwW6YjMIatVM8-11" style="edgeStyle=orthogonalEdgeStyle;rounded=0;orthogonalLoop=1;jettySize=auto;html=1;exitX=0.5;exitY=0;exitDx=0;exitDy=0;exitPerimeter=0;entryX=1;entryY=0.5;entryDx=0;entryDy=0;entryPerimeter=0;" edge="1" parent="1" source="kTG_Xk6IwW6YjMIatVM8-10" target="kTG_Xk6IwW6YjMIatVM8-5">
          <mxGeometry relative="1" as="geometry" />
        </mxCell>
      </root>
    </mxGraphModel>
  </diagram>
</mxfile>
